<svg xmlns="http://www.w3.org/2000/svg" viewBox="0 0 100 100" width="100" height="100" role="img" aria-label="Manuscript">
  <defs>
    
    <linearGradient id="b" x1="0" y1="0" x2="0" y2="1">
      <stop offset="0" stop-color="#fcfbf6"></stop><stop offset="1" stop-color="#efece4"></stop>
    </linearGradient>
    <radialGradient id="s" cx="0.5" cy="0.04" r="0.62">
      <stop offset="0" stop-color="#ffffff" stop-opacity="0.9"></stop>
      <stop offset="0.55" stop-color="#ffffff" stop-opacity="0.33"></stop>
      <stop offset="1" stop-color="#ffffff" stop-opacity="0"></stop>
    </radialGradient>
    <clipPath id="c"><path d="M100.000 50.000 L99.990 62.526 L99.961 66.524 L99.911 69.428 L99.842 71.787 L99.753 73.807 L99.644 75.589 L99.515 77.194 L99.366 78.657 L99.196 80.006 L99.006 81.258 L98.796 82.428 L98.565 83.525 L98.313 84.558 L98.039 85.534 L97.744 86.458 L97.428 87.334 L97.089 88.166 L96.728 88.956 L96.344 89.709 L95.936 90.426 L95.505 91.108 L95.049 91.758 L94.568 92.377 L94.061 92.967 L93.528 93.528 L92.967 94.061 L92.377 94.568 L91.758 95.049 L91.108 95.505 L90.426 95.936 L89.709 96.344 L88.956 96.728 L88.166 97.089 L87.334 97.428 L86.458 97.744 L85.534 98.039 L84.558 98.313 L83.525 98.565 L82.428 98.796 L81.258 99.006 L80.006 99.196 L78.657 99.366 L77.194 99.515 L75.589 99.644 L73.807 99.753 L71.787 99.842 L69.428 99.911 L66.524 99.961 L62.526 99.990 L50.000 100.000 L37.474 99.990 L33.476 99.961 L30.572 99.911 L28.213 99.842 L26.193 99.753 L24.411 99.644 L22.806 99.515 L21.343 99.366 L19.994 99.196 L18.742 99.006 L17.572 98.796 L16.475 98.565 L15.442 98.313 L14.466 98.039 L13.542 97.744 L12.666 97.428 L11.834 97.089 L11.044 96.728 L10.291 96.344 L9.574 95.936 L8.892 95.505 L8.242 95.049 L7.623 94.568 L7.033 94.061 L6.472 93.528 L5.939 92.967 L5.432 92.377 L4.951 91.758 L4.495 91.108 L4.064 90.426 L3.656 89.709 L3.272 88.956 L2.911 88.166 L2.572 87.334 L2.256 86.458 L1.961 85.534 L1.687 84.558 L1.435 83.525 L1.204 82.428 L0.994 81.258 L0.804 80.006 L0.634 78.657 L0.485 77.194 L0.356 75.589 L0.247 73.807 L0.158 71.787 L0.089 69.428 L0.039 66.524 L0.010 62.526 L0.000 50.000 L0.010 37.474 L0.039 33.476 L0.089 30.572 L0.158 28.213 L0.247 26.193 L0.356 24.411 L0.485 22.806 L0.634 21.343 L0.804 19.994 L0.994 18.742 L1.204 17.572 L1.435 16.475 L1.687 15.442 L1.961 14.466 L2.256 13.542 L2.572 12.666 L2.911 11.834 L3.272 11.044 L3.656 10.291 L4.064 9.574 L4.495 8.892 L4.951 8.242 L5.432 7.623 L5.939 7.033 L6.472 6.472 L7.033 5.939 L7.623 5.432 L8.242 4.951 L8.892 4.495 L9.574 4.064 L10.291 3.656 L11.044 3.272 L11.834 2.911 L12.666 2.572 L13.542 2.256 L14.466 1.961 L15.442 1.687 L16.475 1.435 L17.572 1.204 L18.742 0.994 L19.994 0.804 L21.343 0.634 L22.806 0.485 L24.411 0.356 L26.193 0.247 L28.213 0.158 L30.572 0.089 L33.476 0.039 L37.474 0.010 L50.000 0.000 L62.526 0.010 L66.524 0.039 L69.428 0.089 L71.787 0.158 L73.807 0.247 L75.589 0.356 L77.194 0.485 L78.657 0.634 L80.006 0.804 L81.258 0.994 L82.428 1.204 L83.525 1.435 L84.558 1.687 L85.534 1.961 L86.458 2.256 L87.334 2.572 L88.166 2.911 L88.956 3.272 L89.709 3.656 L90.426 4.064 L91.108 4.495 L91.758 4.951 L92.377 5.432 L92.967 5.939 L93.528 6.472 L94.061 7.033 L94.568 7.623 L95.049 8.242 L95.505 8.892 L95.936 9.574 L96.344 10.291 L96.728 11.044 L97.089 11.834 L97.428 12.666 L97.744 13.542 L98.039 14.466 L98.313 15.442 L98.565 16.475 L98.796 17.572 L99.006 18.742 L99.196 19.994 L99.366 21.343 L99.515 22.806 L99.644 24.411 L99.753 26.193 L99.842 28.213 L99.911 30.572 L99.961 33.476 L99.990 37.474 L100.000 50.000 Z"></path></clipPath>
  </defs>
  <path d="M100.000 50.000 L99.990 62.526 L99.961 66.524 L99.911 69.428 L99.842 71.787 L99.753 73.807 L99.644 75.589 L99.515 77.194 L99.366 78.657 L99.196 80.006 L99.006 81.258 L98.796 82.428 L98.565 83.525 L98.313 84.558 L98.039 85.534 L97.744 86.458 L97.428 87.334 L97.089 88.166 L96.728 88.956 L96.344 89.709 L95.936 90.426 L95.505 91.108 L95.049 91.758 L94.568 92.377 L94.061 92.967 L93.528 93.528 L92.967 94.061 L92.377 94.568 L91.758 95.049 L91.108 95.505 L90.426 95.936 L89.709 96.344 L88.956 96.728 L88.166 97.089 L87.334 97.428 L86.458 97.744 L85.534 98.039 L84.558 98.313 L83.525 98.565 L82.428 98.796 L81.258 99.006 L80.006 99.196 L78.657 99.366 L77.194 99.515 L75.589 99.644 L73.807 99.753 L71.787 99.842 L69.428 99.911 L66.524 99.961 L62.526 99.990 L50.000 100.000 L37.474 99.990 L33.476 99.961 L30.572 99.911 L28.213 99.842 L26.193 99.753 L24.411 99.644 L22.806 99.515 L21.343 99.366 L19.994 99.196 L18.742 99.006 L17.572 98.796 L16.475 98.565 L15.442 98.313 L14.466 98.039 L13.542 97.744 L12.666 97.428 L11.834 97.089 L11.044 96.728 L10.291 96.344 L9.574 95.936 L8.892 95.505 L8.242 95.049 L7.623 94.568 L7.033 94.061 L6.472 93.528 L5.939 92.967 L5.432 92.377 L4.951 91.758 L4.495 91.108 L4.064 90.426 L3.656 89.709 L3.272 88.956 L2.911 88.166 L2.572 87.334 L2.256 86.458 L1.961 85.534 L1.687 84.558 L1.435 83.525 L1.204 82.428 L0.994 81.258 L0.804 80.006 L0.634 78.657 L0.485 77.194 L0.356 75.589 L0.247 73.807 L0.158 71.787 L0.089 69.428 L0.039 66.524 L0.010 62.526 L0.000 50.000 L0.010 37.474 L0.039 33.476 L0.089 30.572 L0.158 28.213 L0.247 26.193 L0.356 24.411 L0.485 22.806 L0.634 21.343 L0.804 19.994 L0.994 18.742 L1.204 17.572 L1.435 16.475 L1.687 15.442 L1.961 14.466 L2.256 13.542 L2.572 12.666 L2.911 11.834 L3.272 11.044 L3.656 10.291 L4.064 9.574 L4.495 8.892 L4.951 8.242 L5.432 7.623 L5.939 7.033 L6.472 6.472 L7.033 5.939 L7.623 5.432 L8.242 4.951 L8.892 4.495 L9.574 4.064 L10.291 3.656 L11.044 3.272 L11.834 2.911 L12.666 2.572 L13.542 2.256 L14.466 1.961 L15.442 1.687 L16.475 1.435 L17.572 1.204 L18.742 0.994 L19.994 0.804 L21.343 0.634 L22.806 0.485 L24.411 0.356 L26.193 0.247 L28.213 0.158 L30.572 0.089 L33.476 0.039 L37.474 0.010 L50.000 0.000 L62.526 0.010 L66.524 0.039 L69.428 0.089 L71.787 0.158 L73.807 0.247 L75.589 0.356 L77.194 0.485 L78.657 0.634 L80.006 0.804 L81.258 0.994 L82.428 1.204 L83.525 1.435 L84.558 1.687 L85.534 1.961 L86.458 2.256 L87.334 2.572 L88.166 2.911 L88.956 3.272 L89.709 3.656 L90.426 4.064 L91.108 4.495 L91.758 4.951 L92.377 5.432 L92.967 5.939 L93.528 6.472 L94.061 7.033 L94.568 7.623 L95.049 8.242 L95.505 8.892 L95.936 9.574 L96.344 10.291 L96.728 11.044 L97.089 11.834 L97.428 12.666 L97.744 13.542 L98.039 14.466 L98.313 15.442 L98.565 16.475 L98.796 17.572 L99.006 18.742 L99.196 19.994 L99.366 21.343 L99.515 22.806 L99.644 24.411 L99.753 26.193 L99.842 28.213 L99.911 30.572 L99.961 33.476 L99.990 37.474 L100.000 50.000 Z" fill="url(#b)"></path>
  <g clip-path="url(#c)"><rect x="0" y="0" width="100" height="62" fill="url(#s)"></rect></g>
  <text x="50" y="56.6" text-anchor="middle" dominant-baseline="central" font-family="Literata, Georgia, &#39;Times New Roman&#39;, serif" font-style="italic" font-weight="600" font-size="66" fill="#1a1a18">M</text>
  <path d="M100.000 50.000 L99.990 62.526 L99.961 66.524 L99.911 69.428 L99.842 71.787 L99.753 73.807 L99.644 75.589 L99.515 77.194 L99.366 78.657 L99.196 80.006 L99.006 81.258 L98.796 82.428 L98.565 83.525 L98.313 84.558 L98.039 85.534 L97.744 86.458 L97.428 87.334 L97.089 88.166 L96.728 88.956 L96.344 89.709 L95.936 90.426 L95.505 91.108 L95.049 91.758 L94.568 92.377 L94.061 92.967 L93.528 93.528 L92.967 94.061 L92.377 94.568 L91.758 95.049 L91.108 95.505 L90.426 95.936 L89.709 96.344 L88.956 96.728 L88.166 97.089 L87.334 97.428 L86.458 97.744 L85.534 98.039 L84.558 98.313 L83.525 98.565 L82.428 98.796 L81.258 99.006 L80.006 99.196 L78.657 99.366 L77.194 99.515 L75.589 99.644 L73.807 99.753 L71.787 99.842 L69.428 99.911 L66.524 99.961 L62.526 99.990 L50.000 100.000 L37.474 99.990 L33.476 99.961 L30.572 99.911 L28.213 99.842 L26.193 99.753 L24.411 99.644 L22.806 99.515 L21.343 99.366 L19.994 99.196 L18.742 99.006 L17.572 98.796 L16.475 98.565 L15.442 98.313 L14.466 98.039 L13.542 97.744 L12.666 97.428 L11.834 97.089 L11.044 96.728 L10.291 96.344 L9.574 95.936 L8.892 95.505 L8.242 95.049 L7.623 94.568 L7.033 94.061 L6.472 93.528 L5.939 92.967 L5.432 92.377 L4.951 91.758 L4.495 91.108 L4.064 90.426 L3.656 89.709 L3.272 88.956 L2.911 88.166 L2.572 87.334 L2.256 86.458 L1.961 85.534 L1.687 84.558 L1.435 83.525 L1.204 82.428 L0.994 81.258 L0.804 80.006 L0.634 78.657 L0.485 77.194 L0.356 75.589 L0.247 73.807 L0.158 71.787 L0.089 69.428 L0.039 66.524 L0.010 62.526 L0.000 50.000 L0.010 37.474 L0.039 33.476 L0.089 30.572 L0.158 28.213 L0.247 26.193 L0.356 24.411 L0.485 22.806 L0.634 21.343 L0.804 19.994 L0.994 18.742 L1.204 17.572 L1.435 16.475 L1.687 15.442 L1.961 14.466 L2.256 13.542 L2.572 12.666 L2.911 11.834 L3.272 11.044 L3.656 10.291 L4.064 9.574 L4.495 8.892 L4.951 8.242 L5.432 7.623 L5.939 7.033 L6.472 6.472 L7.033 5.939 L7.623 5.432 L8.242 4.951 L8.892 4.495 L9.574 4.064 L10.291 3.656 L11.044 3.272 L11.834 2.911 L12.666 2.572 L13.542 2.256 L14.466 1.961 L15.442 1.687 L16.475 1.435 L17.572 1.204 L18.742 0.994 L19.994 0.804 L21.343 0.634 L22.806 0.485 L24.411 0.356 L26.193 0.247 L28.213 0.158 L30.572 0.089 L33.476 0.039 L37.474 0.010 L50.000 0.000 L62.526 0.010 L66.524 0.039 L69.428 0.089 L71.787 0.158 L73.807 0.247 L75.589 0.356 L77.194 0.485 L78.657 0.634 L80.006 0.804 L81.258 0.994 L82.428 1.204 L83.525 1.435 L84.558 1.687 L85.534 1.961 L86.458 2.256 L87.334 2.572 L88.166 2.911 L88.956 3.272 L89.709 3.656 L90.426 4.064 L91.108 4.495 L91.758 4.951 L92.377 5.432 L92.967 5.939 L93.528 6.472 L94.061 7.033 L94.568 7.623 L95.049 8.242 L95.505 8.892 L95.936 9.574 L96.344 10.291 L96.728 11.044 L97.089 11.834 L97.428 12.666 L97.744 13.542 L98.039 14.466 L98.313 15.442 L98.565 16.475 L98.796 17.572 L99.006 18.742 L99.196 19.994 L99.366 21.343 L99.515 22.806 L99.644 24.411 L99.753 26.193 L99.842 28.213 L99.911 30.572 L99.961 33.476 L99.990 37.474 L100.000 50.000 Z" fill="none" stroke="rgba(40,38,32,0.13)" stroke-width="0.3"></path>
</svg>